<svg xmlns="http://www.w3.org/2000/svg" viewBox="0 0 24 24" fill="none">
  <!-- Top-down helicopter silhouette -->
  <path
    fill="#ffffff"
    d="M4 6.25C4 5.56 4.56 5 5.25 5H19a.75.75 0 0 1 0 1.5H5.25A.75.75 0 0 1 4 6.25Z"
  />
  <path
    fill="#ffffff"
    d="M10.5 8.4c0-.39.31-.7.7-.7h3.6c1.23 0 2.27.93 2.42 2.15l.3 2.43a.6.6 0 0 1-.6.67h-2.29c-.66 0-1.25-.4-1.5-1.01l-.52-1.26H12.4v2.3c0 .44-.36.8-.8.8s-.8-.36-.8-.8V8.4Zm1.6 2.55h.95c.23 0 .43.14.51.35l.36.95a1.02 1.02 0 0 0 .95.66h1.05l-.18-1.4a.96.96 0 0 0-.95-.83h-2.69Zm-5.12.56a.7.7 0 0 1 .8-.58l1.9.32a.7.7 0 1 1-.23 1.37l-1.9-.32a.7.7 0 0 1-.57-.79Z"
  />
  <path
    fill="#ffffff"
    d="M11.5 5.3c0-.3.24-.55.55-.55h2.3a.55.55 0 1 1 0 1.1h-2.3a.55.55 0 0 1-.55-.55Z"
  />
</svg>
