<svg xmlns="http://www.w3.org/2000/svg" viewBox="0 0 24 24" fill="none">
  <!-- Simple top-down fixed-wing silhouette -->
  <path
    fill="#ffffff"
    d="M11.5 2.2c0-.39.32-.7.7-.7h.6c.38 0 .7.31.7.7v4.7l4.5-.8c.35-.06.66.2.66.56v.94c0 .28-.18.53-.45.61l-5.41 1.64v2.15l2.36.64c.26.07.44.31.44.59v.75c0 .37-.33.64-.69.57l-2.11-.46v2.35l1 1.14c.13.14.18.33.14.52l-.18.9c-.06.3-.32.51-.63.51h-1.66c-.31 0-.57-.21-.63-.51l-.18-.9a.68.68 0 0 1 .14-.52l1-1.14v-2.35l-2.11.46c-.36.07-.69-.2-.69-.57v-.75c0-.28.18-.52.44-.59l2.36-.64v-2.15L5.79 8.21a.63.63 0 0 1-.45-.61v-.94c0-.36.31-.62.66-.56l4.5.8V2.2Z"
  />
  <path
    fill="#ffffff"
    d="M4.4 11.6c0-.36.29-.65.65-.65H9.3v1.3H5.05a.65.65 0 0 1-.65-.65Zm15.2 0c0-.36-.29-.65-.65-.65H14.7v1.3h4.25c.36 0 .65-.29.65-.65Z"
  />
</svg>
