<svg xmlns="http://www.w3.org/2000/svg" viewBox="0 0 24 24" fill="none">
  <!-- Top-down fixed-wing silhouette -->
  <path
    fill="#ffffff"
    d="M11.5 2.1c0-.61.89-.96 1.34-.5l.41.41v5.3l4.6-.9c.41-.08.75.23.75.65v1c0 .32-.22.6-.53.67l-4.82 1.12v2.43l2.74.77c.27.08.45.32.45.6v1c0 .42-.39.73-.8.63l-2.39-.63v2.54l1.12 1.36c.11.13.15.3.12.47l-.26 1.24c-.06.28-.31.48-.6.48H10.5c-.29 0-.54-.2-.6-.48l-.26-1.24a.64.64 0 0 1 .12-.47l1.12-1.36v-2.54l-2.39.63c-.41.1-.8-.21-.8-.63v-1c0-.28.18-.52.45-.6l2.74-.77v-2.43L5.26 9.83a.68.68 0 0 1-.53-.67v-1c0-.42.34-.73.75-.65l4.6.9v-5.3l.41-.41c.45-.45 1.34-.11 1.34.5v0Z"
  />
  <path
    fill="#ffffff"
    d="M4.25 12c0-.41.34-.75.75-.75H9.5V12H5a.75.75 0 0 1-.75-.75Zm15.5 0c0-.41-.34-.75-.75-.75H14.5V12H19a.75.75 0 0 0 .75-.75Z"
  />
</svg>
