<svg xmlns="http://www.w3.org/2000/svg" viewBox="0 0 24 24" fill="none">
  <!-- Top-down helicopter silhouette -->
  <path
    fill="#ffffff"
    d="M4.1 6.3c0-.39.31-.7.7-.7h14.4c.39 0 .7.31.7.7s-.31.7-.7.7H4.8a.7.7 0 0 1-.7-.7Z"
  />
  <path
    fill="#ffffff"
    d="M10.6 8.6c0-.39.31-.7.7-.7h2.7c1.13 0 2.08.86 2.22 1.98l.32 2.46c.05.38-.25.7-.64.7h-1.74c-.66 0-1.26-.41-1.5-1.02l-.24-.6h-.56v2.18c0 .44-.36.8-.8.8s-.8-.36-.8-.8V8.6Zm1.6 1.98h.94c.24 0 .45.14.54.36l.2.5c.18.45.62.75 1.11.75h.95l-.2-1.54a.94.94 0 0 0-.92-.8h-2.62Zm-4.62.42a.7.7 0 0 1 .81-.57l1.5.26a.7.7 0 1 1-.24 1.38l-1.5-.26a.7.7 0 0 1-.57-.81Z"
  />
  <path
    fill="#ffffff"
    d="M11.7 5.3c0-.3.24-.55.55-.55h2a.55.55 0 1 1 0 1.1h-2a.55.55 0 0 1-.55-.55Z"
  />
</svg>
