<svg
  width="64"
  height="64"
  viewBox="0 0 64 64"
  xmlns="http://www.w3.org/2000/svg"
  role="img"
  aria-labelledby="controllerTitle"
>
  <title id="controllerTitle">Drone controller marker</title>
  <defs>
    <linearGradient id="controller-shell" x1="0%" y1="0%" x2="100%" y2="100%">
      <stop offset="0%" stop-color="#0f1a1d" />
      <stop offset="100%" stop-color="#1d2c34" />
    </linearGradient>
    <radialGradient id="controller-glow" cx="50%" cy="50%" r="70%">
      <stop offset="0%" stop-color="#8effd8" stop-opacity="0.9" />
      <stop offset="70%" stop-color="#16221f" stop-opacity="0" />
    </radialGradient>
    <linearGradient id="controller-halo" x1="0%" y1="0%" x2="100%" y2="100%">
      <stop offset="0%" stop-color="#64ffc6" stop-opacity="0.9" />
      <stop offset="60%" stop-color="#1b2a23" stop-opacity="0.15" />
    </linearGradient>
  </defs>

  <circle cx="32" cy="32" r="26" fill="url(#controller-glow)" />

  <path
    d="M32 13c-9.6 0-17.6 7.4-18.4 16.7a12.3 12.3 0 0 0 3.7 10.4c3 2.9 6.2 2.6 9.8 0.6 2.5-1.3 5.3-1.3 7.8 0 3.6 1.9 7 2.2 9.9-0.7a12.3 12.3 0 0 0 3.8-10.4C47.8 20.4 41.7 13 32 13Z"
    fill="url(#controller-shell)"
    stroke="#8effd8"
    stroke-width="1.6"
  />

  <path
    d="M17 43c2.2 1.9 4.7 2 7.2 0.7 2.6-1.3 5.5-1.3 8 0 2.8 1.4 5.3 1.4 7.5-0.5"
    fill="none"
    stroke="url(#controller-halo)"
    stroke-width="1.4"
  />

  <circle cx="20" cy="32" r="4.3" fill="#0c1418" stroke="#8effd8" stroke-width="1.4" />
  <path
    d="M20 29v6M17 32h6"
    stroke="#8effd8"
    stroke-width="1.2"
    stroke-linecap="round"
  />

  <circle cx="44" cy="32" r="4.3" fill="#0c1418" stroke="#8effd8" stroke-width="1.4" />
  <circle cx="44" cy="32" r="1.7" fill="#8effd8" />

  <rect x="30.5" y="19" width="3.5" height="11" rx="1.2" fill="#8effd8" />

  <rect x="24.5" y="27.5" width="15" height="2.4" rx="1.2" fill="#0c1816" opacity="0.75" />

  <circle cx="26" cy="24" r="1.6" fill="#8effd8" opacity="0.75" />
  <circle cx="38" cy="24" r="1.6" fill="#8effd8" opacity="0.75" />

  <path
    d="M21 18c-2.4-2.8-5-4.3-7.9-4.6m29.8 0.2c-2.8 0.4-5.6 2-8 4.8"
    stroke="rgba(142, 255, 216, 0.6)"
    stroke-width="1.1"
    stroke-linecap="round"
  />
</svg>
